<svg xmlns="http://www.w3.org/2000/svg" width="256" height="256" viewBox="0 0 256 256">
  <!-- Document shape with folded corner -->
  <path d="M28 8 L170 8 L212 50 L212 248 L28 248 Z" fill="none" stroke="#808080" stroke-width="6"/>
  <path d="M170 8 L170 50 L212 50" fill="none" stroke="#808080" stroke-width="6"/>

  <!-- CSV grid lines -->
  <line x1="48" y1="80" x2="192" y2="80" stroke="#808080" stroke-width="3"/>
  <line x1="48" y1="108" x2="192" y2="108" stroke="#808080" stroke-width="3"/>
  <line x1="48" y1="136" x2="192" y2="136" stroke="#808080" stroke-width="3"/>
  <line x1="48" y1="164" x2="192" y2="164" stroke="#808080" stroke-width="3"/>
  <line x1="48" y1="192" x2="192" y2="192" stroke="#808080" stroke-width="3"/>

  <line x1="96" y1="66" x2="96" y2="206" stroke="#808080" stroke-width="3"/>
  <line x1="144" y1="66" x2="144" y2="206" stroke="#808080" stroke-width="3"/>

  <!-- Header row highlight -->
  <rect x="48" y="66" width="144" height="14" fill="#808080" opacity="0.25" rx="1"/>

  <!-- Cell content bars -->
  <rect x="56" y="88" width="28" height="8" rx="2" fill="#808080" opacity="0.6"/>
  <rect x="104" y="88" width="20" height="8" rx="2" fill="#808080" opacity="0.5"/>
  <rect x="152" y="88" width="28" height="8" rx="2" fill="#808080" opacity="0.6"/>

  <rect x="56" y="116" width="22" height="8" rx="2" fill="#808080" opacity="0.5"/>
  <rect x="104" y="116" width="30" height="8" rx="2" fill="#808080" opacity="0.6"/>
  <rect x="152" y="116" width="18" height="8" rx="2" fill="#808080" opacity="0.5"/>

  <rect x="56" y="144" width="30" height="8" rx="2" fill="#808080" opacity="0.6"/>
  <rect x="104" y="144" width="16" height="8" rx="2" fill="#808080" opacity="0.5"/>
  <rect x="152" y="144" width="26" height="8" rx="2" fill="#808080" opacity="0.6"/>

  <rect x="56" y="172" width="20" height="8" rx="2" fill="#808080" opacity="0.5"/>
  <rect x="104" y="172" width="26" height="8" rx="2" fill="#808080" opacity="0.6"/>
  <rect x="152" y="172" width="22" height="8" rx="2" fill="#808080" opacity="0.5"/>

  <!-- SQL badge -->
  <rect x="138" y="200" width="82" height="42" rx="8" fill="#808080" stroke="#808080" stroke-width="2"/>
  <text x="179" y="228" font-family="'SF Pro Display', 'Segoe UI', Arial, sans-serif" font-size="26" font-weight="800" fill="#ffffff" text-anchor="middle" letter-spacing="1">SQL</text>
</svg>
